<svg width="446" height="74" viewBox="0 0 446 74" fill="none" xmlns="http://www.w3.org/2000/svg">
<path d="M105.15 54.6C102.383 54.6 99.8167 54.15 97.45 53.25C95.1167 52.35 93.0833 51.0833 91.35 49.45C89.65 47.8167 88.3167 45.9 87.35 43.7C86.4167 41.5 85.95 39.1 85.95 36.5C85.95 33.9 86.4167 31.5 87.35 29.3C88.3167 27.1 89.6667 25.1833 91.4 23.55C93.1333 21.9167 95.1667 20.65 97.5 19.75C99.8333 18.85 102.367 18.4 105.1 18.4C107.867 18.4 110.4 18.85 112.7 19.75C115.033 20.65 117.05 21.9167 118.75 23.55C120.483 25.1833 121.833 27.1 122.8 29.3C123.767 31.4667 124.25 33.8667 124.25 36.5C124.25 39.1 123.767 41.5167 122.8 43.75C121.833 45.95 120.483 47.8667 118.75 49.5C117.05 51.1 115.033 52.35 112.7 53.25C110.4 54.15 107.883 54.6 105.15 54.6ZM105.1 47.7C106.667 47.7 108.1 47.4333 109.4 46.9C110.733 46.3667 111.9 45.6 112.9 44.6C113.9 43.6 114.667 42.4167 115.2 41.05C115.767 39.6833 116.05 38.1667 116.05 36.5C116.05 34.8333 115.767 33.3167 115.2 31.95C114.667 30.5833 113.9 29.4 112.9 28.4C111.933 27.4 110.783 26.6333 109.45 26.1C108.117 25.5667 106.667 25.3 105.1 25.3C103.533 25.3 102.083 25.5667 100.75 26.1C99.45 26.6333 98.3 27.4 97.3 28.4C96.3 29.4 95.5167 30.5833 94.95 31.95C94.4167 33.3167 94.15 34.8333 94.15 36.5C94.15 38.1333 94.4167 39.65 94.95 41.05C95.5167 42.4167 96.2833 43.6 97.25 44.6C98.25 45.6 99.4167 46.3667 100.75 46.9C102.083 47.4333 103.533 47.7 105.1 47.7ZM130.338 54V19H137.038L157.688 44.2H154.437V19H162.438V54H155.788L135.088 28.8H138.338V54H130.338ZM170.718 54V19H178.818V54H170.718ZM204.025 54.6C201.258 54.6 198.708 54.1667 196.375 53.3C194.075 52.4 192.058 51.1333 190.325 49.5C188.625 47.8667 187.291 45.95 186.325 43.75C185.391 41.55 184.925 39.1333 184.925 36.5C184.925 33.8667 185.391 31.45 186.325 29.25C187.291 27.05 188.641 25.1333 190.375 23.5C192.108 21.8667 194.141 20.6167 196.475 19.75C198.808 18.85 201.375 18.4 204.175 18.4C207.275 18.4 210.058 18.9167 212.525 19.95C215.025 20.9833 217.125 22.4833 218.825 24.45L213.625 29.25C212.358 27.9167 210.975 26.9333 209.475 26.3C207.975 25.6333 206.341 25.3 204.575 25.3C202.875 25.3 201.325 25.5667 199.925 26.1C198.525 26.6333 197.308 27.4 196.275 28.4C195.275 29.4 194.491 30.5833 193.925 31.95C193.391 33.3167 193.125 34.8333 193.125 36.5C193.125 38.1333 193.391 39.6333 193.925 41C194.491 42.3667 195.275 43.5667 196.275 44.6C197.308 45.6 198.508 46.3667 199.875 46.9C201.275 47.4333 202.808 47.7 204.475 47.7C206.075 47.7 207.625 47.45 209.125 46.95C210.658 46.4167 212.141 45.5333 213.575 44.3L218.175 50.15C216.275 51.5833 214.058 52.6833 211.525 53.45C209.025 54.2167 206.525 54.6 204.025 54.6ZM210.775 49.1V35.95H218.175V50.15L210.775 49.1ZM225.699 54V19H233.799V54H225.699ZM242.105 54V19H257.255C260.388 19 263.088 19.5167 265.355 20.55C267.622 21.55 269.372 23 270.605 24.9C271.838 26.8 272.455 29.0667 272.455 31.7C272.455 34.3 271.838 36.55 270.605 38.45C269.372 40.3167 267.622 41.75 265.355 42.75C263.088 43.75 260.388 44.25 257.255 44.25H246.605L250.205 40.7V54H242.105ZM264.355 54L255.605 41.3H264.255L273.105 54H264.355ZM250.205 41.6L246.605 37.8H256.805C259.305 37.8 261.172 37.2667 262.405 36.2C263.638 35.1 264.255 33.6 264.255 31.7C264.255 29.7667 263.638 28.2667 262.405 27.2C261.172 26.1333 259.305 25.6 256.805 25.6H246.605L250.205 21.75V41.6ZM278.873 54V19H286.973V54H278.873Z" fill="black"/>
<g clip-path="url(#clip0_3_35)">
<path d="M37.7174 65.9693C31.3134 66.0956 24.9095 65.7111 18.5665 64.8193C14.0988 64.2117 9.67914 63.3312 5.50965 61.4381C0.923721 59.3562 -0.42841 55.7296 0.113127 50.9685C0.916863 43.8937 3.82163 37.5347 7.052 31.3199C11.6791 22.4189 17.2846 14.2063 24.4823 7.15726C26.4611 5.21523 28.6519 3.50241 31.0133 2.05116C35.4861 -0.694975 39.9092 -0.665797 44.3803 2.07004C49.261 5.05647 53.134 9.12419 56.69 13.5163C63.5775 22.0225 69.0682 31.349 72.9395 41.5887C74.2797 45.1381 75.3387 48.787 75.2925 52.6608C75.2376 57.391 73.4862 59.981 69.1128 61.79C65.1798 63.4153 61.048 64.2529 56.8682 64.809C50.5189 65.6603 44.1335 66.122 37.7174 65.9693ZM37.6625 32.983C41.6327 32.983 45.6022 32.983 49.5712 32.983C52.3029 32.983 53.4099 33.9321 53.5796 36.6611C53.9977 43.4029 54.4107 50.1481 53.8178 56.9036C53.7253 57.966 53.7253 59.0387 53.6653 60.1045C53.6276 60.7602 53.8366 61.0193 54.5547 60.9404C58.887 60.4701 63.1559 59.7012 67.2465 58.1565C70.5283 56.9173 71.2755 55.6901 71.1778 52.1493C71.0853 48.7166 70.069 45.5002 68.8574 42.3662C65.0872 32.5831 59.7421 23.7062 53.1375 15.5913C50.0528 11.8154 46.6956 8.31922 42.5244 5.6795C39.2546 3.6096 36.0996 3.61989 32.8384 5.6795C29.6732 7.68761 26.9449 10.1797 24.4857 12.9705C16.9401 21.5127 10.9182 31.2914 6.68354 41.8787C5.42607 44.9617 4.57797 48.1966 4.16094 51.5005C3.77707 54.6586 4.58594 56.5277 7.07427 57.6639C11.47 59.6686 16.181 60.41 20.9332 60.9473C21.6512 61.0279 21.802 60.6658 21.7523 60.0221C21.1379 52.1781 21.1757 44.2964 21.8654 36.4586C22.0779 34.0557 23.1113 32.995 25.4968 32.9881C29.5532 32.9744 33.6079 32.9847 37.6625 32.983Z" fill="black"/>
<path d="M23.4249 27.4837C23.4931 27.4837 23.5585 27.4566 23.6067 27.4083C23.6549 27.36 23.6819 27.2945 23.6819 27.2262C23.6819 27.158 23.6549 27.0925 23.6067 27.0442C23.5585 26.9959 23.4931 26.9688 23.4249 26.9688C23.3567 26.9688 23.2913 26.9959 23.2431 27.0442C23.1949 27.0925 23.1678 27.158 23.1678 27.2262C23.1678 27.2945 23.1949 27.36 23.2431 27.4083C23.2913 27.4566 23.3567 27.4837 23.4249 27.4837Z" fill="white"/>
<path d="M25.7727 21.8678C25.8409 21.8678 25.9063 21.8407 25.9545 21.7924C26.0027 21.7441 26.0298 21.6787 26.0298 21.6104C26.0298 21.5421 26.0027 21.4766 25.9545 21.4283C25.9063 21.3801 25.8409 21.3529 25.7727 21.3529C25.7045 21.3529 25.6391 21.3801 25.5909 21.4283C25.5427 21.4766 25.5156 21.5421 25.5156 21.6104C25.5156 21.6787 25.5427 21.7441 25.5909 21.7924C25.6391 21.8407 25.7045 21.8678 25.7727 21.8678Z" fill="white"/>
<path d="M22.9039 23.3044C22.9721 23.3044 23.0375 23.2773 23.0857 23.229C23.1339 23.1807 23.161 23.1153 23.161 23.047C23.161 22.9787 23.1339 22.9132 23.0857 22.8649C23.0375 22.8166 22.9721 22.7895 22.9039 22.7895C22.8357 22.7895 22.7704 22.8166 22.7222 22.8649C22.6739 22.9132 22.6469 22.9787 22.6469 23.047C22.6469 23.1153 22.6739 23.1807 22.7222 23.229C22.7704 23.2773 22.8357 23.3044 22.9039 23.3044Z" fill="white"/>
<path d="M47.5695 25.1358C48.7214 25.1358 49.6552 24.2006 49.6552 23.047C49.6552 21.8934 48.7214 20.9582 47.5695 20.9582C46.4177 20.9582 45.4839 21.8934 45.4839 23.047C45.4839 24.2006 46.4177 25.1358 47.5695 25.1358Z" fill="black" stroke="black" stroke-miterlimit="10"/>
<path d="M27.8583 25.1358C29.0101 25.1358 29.9439 24.2006 29.9439 23.047C29.9439 21.8934 29.0101 20.9582 27.8583 20.9582C26.7064 20.9582 25.7727 21.8934 25.7727 23.047C25.7727 24.2006 26.7064 25.1358 27.8583 25.1358Z" fill="black" stroke="black" stroke-miterlimit="10"/>
</g>
<defs>
<clipPath id="clip0_3_35">
<rect width="122" height="66" fill="white"/>
</clipPath>
</defs>
</svg>
