<?xml version="1.0" encoding="UTF-8" standalone="no" ?>
<!DOCTYPE svg PUBLIC "-//W3C//DTD SVG 1.1//EN" "http://www.w3.org/Graphics/SVG/1.1/DTD/svg11.dtd">
<svg xmlns="http://www.w3.org/2000/svg" xmlns:xlink="http://www.w3.org/1999/xlink" version="1.1" width="1080" height="270" viewBox="0 0 1080 270" xml:space="preserve">
<desc>Created with Fabric.js 5.2.4</desc>
<defs>
</defs>
<g transform="matrix(Infinity NaN NaN Infinity 0 0)" id="61b75899-4c4d-4ef9-a1d4-403a8bc0a207"  >
</g>
<g transform="matrix(1 0 0 1 540 135)" id="fe9ff187-9a2e-4b0d-8e4b-9c300cbb6dc4"  >
<rect style="stroke: none; stroke-width: 1; stroke-dasharray: none; stroke-linecap: butt; stroke-dashoffset: 0; stroke-linejoin: miter; stroke-miterlimit: 4; fill: rgb(255,255,255); fill-rule: nonzero; opacity: 1; visibility: hidden;" vector-effect="non-scaling-stroke"  x="-540" y="-135" rx="0" ry="0" width="1080" height="270" />
</g>
<g transform="matrix(3.7 0 0 3.7 540 135)"  >
<g style="" vector-effect="non-scaling-stroke"   >
		<g transform="matrix(1 0 0 1 42.97 3.5)"  >
<path style="stroke: none; stroke-width: 1; stroke-dasharray: none; stroke-linecap: butt; stroke-dashoffset: 0; stroke-linejoin: miter; stroke-miterlimit: 4; fill: rgb(0,0,0); fill-rule: nonzero; opacity: 1;" vector-effect="non-scaling-stroke"  transform=" translate(-186.46, -36.5)" d="M 105.15 54.6 C 102.383 54.6 99.8167 54.15 97.45 53.25 C 95.1167 52.35 93.0833 51.0833 91.35 49.45 C 89.65 47.8167 88.3167 45.9 87.35 43.7 C 86.4167 41.5 85.95 39.1 85.95 36.5 C 85.95 33.9 86.4167 31.5 87.35 29.3 C 88.3167 27.1 89.6667 25.1833 91.4 23.55 C 93.1333 21.9167 95.1667 20.65 97.5 19.75 C 99.8333 18.85 102.367 18.4 105.1 18.4 C 107.867 18.4 110.4 18.85 112.7 19.75 C 115.033 20.65 117.05 21.9167 118.75 23.55 C 120.483 25.1833 121.833 27.1 122.8 29.3 C 123.767 31.4667 124.25 33.8667 124.25 36.5 C 124.25 39.1 123.767 41.5167 122.8 43.75 C 121.833 45.95 120.483 47.8667 118.75 49.5 C 117.05 51.1 115.033 52.35 112.7 53.25 C 110.4 54.15 107.883 54.6 105.15 54.6 Z M 105.1 47.7 C 106.667 47.7 108.1 47.4333 109.4 46.9 C 110.733 46.3667 111.9 45.6 112.9 44.6 C 113.9 43.6 114.667 42.4167 115.2 41.05 C 115.767 39.6833 116.05 38.1667 116.05 36.5 C 116.05 34.8333 115.767 33.3167 115.2 31.95 C 114.667 30.5833 113.9 29.4 112.9 28.4 C 111.933 27.4 110.783 26.6333 109.45 26.1 C 108.117 25.5667 106.667 25.3 105.1 25.3 C 103.533 25.3 102.083 25.5667 100.75 26.1 C 99.45 26.6333 98.3 27.4 97.3 28.4 C 96.3 29.4 95.5167 30.5833 94.95 31.95 C 94.4167 33.3167 94.15 34.8333 94.15 36.5 C 94.15 38.1333 94.4167 39.65 94.95 41.05 C 95.5167 42.4167 96.2833 43.6 97.25 44.6 C 98.25 45.6 99.4167 46.3667 100.75 46.9 C 102.083 47.4333 103.533 47.7 105.1 47.7 Z M 130.338 54 L 130.338 19 L 137.038 19 L 157.688 44.2 L 154.437 44.2 L 154.437 19 L 162.438 19 L 162.438 54 L 155.788 54 L 135.088 28.8 L 138.338 28.8 L 138.338 54 L 130.338 54 Z M 170.718 54 L 170.718 19 L 178.818 19 L 178.818 54 L 170.718 54 Z M 204.025 54.6 C 201.258 54.6 198.708 54.1667 196.375 53.3 C 194.075 52.4 192.058 51.1333 190.325 49.5 C 188.625 47.8667 187.291 45.95 186.325 43.75 C 185.391 41.55 184.925 39.1333 184.925 36.5 C 184.925 33.8667 185.391 31.45 186.325 29.25 C 187.291 27.05 188.641 25.1333 190.375 23.5 C 192.108 21.8667 194.141 20.6167 196.475 19.75 C 198.808 18.85 201.375 18.4 204.175 18.4 C 207.275 18.4 210.058 18.9167 212.525 19.95 C 215.025 20.9833 217.125 22.4833 218.825 24.45 L 213.625 29.25 C 212.358 27.9167 210.975 26.9333 209.475 26.3 C 207.975 25.6333 206.341 25.3 204.575 25.3 C 202.875 25.3 201.325 25.5667 199.925 26.1 C 198.525 26.6333 197.308 27.4 196.275 28.4 C 195.275 29.4 194.491 30.5833 193.925 31.95 C 193.391 33.3167 193.125 34.8333 193.125 36.5 C 193.125 38.1333 193.391 39.6333 193.925 41 C 194.491 42.3667 195.275 43.5667 196.275 44.6 C 197.308 45.6 198.508 46.3667 199.875 46.9 C 201.275 47.4333 202.808 47.7 204.475 47.7 C 206.075 47.7 207.625 47.45 209.125 46.95 C 210.658 46.4167 212.141 45.5333 213.575 44.3 L 218.175 50.15 C 216.275 51.5833 214.058 52.6833 211.525 53.45 C 209.025 54.2167 206.525 54.6 204.025 54.6 Z M 210.775 49.1 L 210.775 35.95 L 218.175 35.95 L 218.175 50.15 L 210.775 49.1 Z M 225.699 54 L 225.699 19 L 233.799 19 L 233.799 54 L 225.699 54 Z M 242.105 54 L 242.105 19 L 257.255 19 C 260.388 19 263.088 19.5167 265.355 20.55 C 267.622 21.55 269.372 23 270.605 24.9 C 271.838 26.8 272.455 29.0667 272.455 31.7 C 272.455 34.3 271.838 36.55 270.605 38.45 C 269.372 40.3167 267.622 41.75 265.355 42.75 C 263.088 43.75 260.388 44.25 257.255 44.25 L 246.605 44.25 L 250.205 40.7 L 250.205 54 L 242.105 54 Z M 264.355 54 L 255.605 41.3 L 264.255 41.3 L 273.105 54 L 264.355 54 Z M 250.205 41.6 L 246.605 37.8 L 256.805 37.8 C 259.305 37.8 261.172 37.2667 262.405 36.2 C 263.638 35.1 264.255 33.6 264.255 31.7 C 264.255 29.7667 263.638 28.2667 262.405 27.2 C 261.172 26.1333 259.305 25.6 256.805 25.6 L 246.605 25.6 L 250.205 21.75 L 250.205 41.6 Z M 278.873 54 L 278.873 19 L 286.973 19 L 286.973 54 L 278.873 54 Z" stroke-linecap="round" />
</g>
		<g transform="matrix(1 0 0 1 -105.84 0)" clip-path="url(#CLIPPATH_5)"  >
<clipPath id="CLIPPATH_5" >
	<rect transform="matrix(1 0 0 1 23.35 0)" id="clip0_3_35" x="-61" y="-33" rx="0" ry="0" width="122" height="66" />
</clipPath>
<path style="stroke: none; stroke-width: 1; stroke-dasharray: none; stroke-linecap: butt; stroke-dashoffset: 0; stroke-linejoin: miter; stroke-miterlimit: 4; fill: rgb(0,0,0); fill-rule: nonzero; opacity: 1;" vector-effect="non-scaling-stroke"  transform=" translate(-37.65, -33)" d="M 37.7174 65.9693 C 31.3134 66.0956 24.9095 65.7111 18.5665 64.8193 C 14.0988 64.2117 9.67914 63.3312 5.50965 61.4381 C 0.923721 59.3562 -0.42841 55.7296 0.113127 50.9685 C 0.916863 43.8937 3.82163 37.5347 7.052 31.3199 C 11.6791 22.4189 17.2846 14.2063 24.4823 7.15726 C 26.4611 5.21523 28.6519 3.50241 31.0133 2.05116 C 35.4861 -0.694975 39.9092 -0.665797 44.3803 2.07004 C 49.261 5.05647 53.134 9.12419 56.69 13.5163 C 63.5775 22.0225 69.0682 31.349 72.9395 41.5887 C 74.2797 45.1381 75.3387 48.787 75.2925 52.6608 C 75.2376 57.391 73.4862 59.981 69.1128 61.79 C 65.1798 63.4153 61.048 64.2529 56.8682 64.809 C 50.5189 65.6603 44.1335 66.122 37.7174 65.9693 Z M 37.6625 32.983 C 41.6327 32.983 45.6022 32.983 49.5712 32.983 C 52.3029 32.983 53.4099 33.9321 53.5796 36.6611 C 53.9977 43.4029 54.4107 50.1481 53.8178 56.9036 C 53.7253 57.966 53.7253 59.0387 53.6653 60.1045 C 53.6276 60.7602 53.8366 61.0193 54.5547 60.9404 C 58.887 60.4701 63.1559 59.7012 67.2465 58.1565 C 70.5283 56.9173 71.2755 55.6901 71.1778 52.1493 C 71.0853 48.7166 70.069 45.5002 68.8574 42.3662 C 65.0872 32.5831 59.7421 23.7062 53.1375 15.5913 C 50.0528 11.8154 46.6956 8.31922 42.5244 5.6795 C 39.2546 3.6096 36.0996 3.61989 32.8384 5.6795 C 29.6732 7.68761 26.9449 10.1797 24.4857 12.9705 C 16.9401 21.5127 10.9182 31.2914 6.68354 41.8787 C 5.42607 44.9617 4.57797 48.1966 4.16094 51.5005 C 3.77707 54.6586 4.58594 56.5277 7.07427 57.6639 C 11.47 59.6686 16.181 60.41 20.9332 60.9473 C 21.6512 61.0279 21.802 60.6658 21.7523 60.0221 C 21.1379 52.1781 21.1757 44.2964 21.8654 36.4586 C 22.0779 34.0557 23.1113 32.995 25.4968 32.9881 C 29.5532 32.9744 33.6079 32.9847 37.6625 32.983 Z" stroke-linecap="round" />
</g>
		<g transform="matrix(1 0 0 1 -120.06 -5.77)" clip-path="url(#CLIPPATH_6)"  >
<clipPath id="CLIPPATH_6" >
	<rect transform="matrix(1 0 0 1 37.58 5.77)" id="clip0_3_35" x="-61" y="-33" rx="0" ry="0" width="122" height="66" />
</clipPath>
<path style="stroke: none; stroke-width: 1; stroke-dasharray: none; stroke-linecap: butt; stroke-dashoffset: 0; stroke-linejoin: miter; stroke-miterlimit: 4; fill: rgb(255,255,255); fill-rule: nonzero; opacity: 1;" vector-effect="non-scaling-stroke"  transform=" translate(-23.42, -27.23)" d="M 23.4249 27.4837 C 23.4931 27.4837 23.5585 27.4566 23.6067 27.4083 C 23.6549 27.36 23.6819 27.2945 23.6819 27.2262 C 23.6819 27.158 23.6549 27.0925 23.6067 27.0442 C 23.5585 26.9959 23.4931 26.9688 23.4249 26.9688 C 23.3567 26.9688 23.2913 26.9959 23.2431 27.0442 C 23.1949 27.0925 23.1678 27.158 23.1678 27.2262 C 23.1678 27.2945 23.1949 27.36 23.2431 27.4083 C 23.2913 27.4566 23.3567 27.4837 23.4249 27.4837 Z" stroke-linecap="round" />
</g>
		<g transform="matrix(1 0 0 1 -117.71 -11.39)" clip-path="url(#CLIPPATH_7)"  >
<clipPath id="CLIPPATH_7" >
	<rect transform="matrix(1 0 0 1 35.23 11.39)" id="clip0_3_35" x="-61" y="-33" rx="0" ry="0" width="122" height="66" />
</clipPath>
<path style="stroke: none; stroke-width: 1; stroke-dasharray: none; stroke-linecap: butt; stroke-dashoffset: 0; stroke-linejoin: miter; stroke-miterlimit: 4; fill: rgb(255,255,255); fill-rule: nonzero; opacity: 1;" vector-effect="non-scaling-stroke"  transform=" translate(-25.77, -21.61)" d="M 25.7727 21.8678 C 25.8409 21.8678 25.9063 21.8407 25.9545 21.7924 C 26.0027 21.7441 26.0298 21.6787 26.0298 21.6104 C 26.0298 21.5421 26.0027 21.4766 25.9545 21.4283 C 25.9063 21.3801 25.8409 21.3529 25.7727 21.3529 C 25.7045 21.3529 25.6391 21.3801 25.5909 21.4283 C 25.5427 21.4766 25.5156 21.5421 25.5156 21.6104 C 25.5156 21.6787 25.5427 21.7441 25.5909 21.7924 C 25.6391 21.8407 25.7045 21.8678 25.7727 21.8678 Z" stroke-linecap="round" />
</g>
		<g transform="matrix(1 0 0 1 -120.58 -9.95)" clip-path="url(#CLIPPATH_8)"  >
<clipPath id="CLIPPATH_8" >
	<rect transform="matrix(1 0 0 1 38.1 9.95)" id="clip0_3_35" x="-61" y="-33" rx="0" ry="0" width="122" height="66" />
</clipPath>
<path style="stroke: none; stroke-width: 1; stroke-dasharray: none; stroke-linecap: butt; stroke-dashoffset: 0; stroke-linejoin: miter; stroke-miterlimit: 4; fill: rgb(255,255,255); fill-rule: nonzero; opacity: 1;" vector-effect="non-scaling-stroke"  transform=" translate(-22.9, -23.05)" d="M 22.9039 23.3044 C 22.9721 23.3044 23.0375 23.2773 23.0857 23.229 C 23.1339 23.1807 23.161 23.1153 23.161 23.047 C 23.161 22.9787 23.1339 22.9132 23.0857 22.8649 C 23.0375 22.8166 22.9721 22.7895 22.9039 22.7895 C 22.8357 22.7895 22.7704 22.8166 22.7222 22.8649 C 22.6739 22.9132 22.6469 22.9787 22.6469 23.047 C 22.6469 23.1153 22.6739 23.1807 22.7222 23.229 C 22.7704 23.2773 22.8357 23.3044 22.9039 23.3044 Z" stroke-linecap="round" />
</g>
		<g transform="matrix(1 0 0 1 -95.91 -9.95)" clip-path="url(#CLIPPATH_9)"  >
<clipPath id="CLIPPATH_9" >
	<rect transform="matrix(1 0 0 1 13.43 9.95)" id="clip0_3_35" x="-61" y="-33" rx="0" ry="0" width="122" height="66" />
</clipPath>
<path style="stroke: rgb(0,0,0); stroke-width: 1; stroke-dasharray: none; stroke-linecap: butt; stroke-dashoffset: 0; stroke-linejoin: miter; stroke-miterlimit: 10; fill: rgb(0,0,0); fill-rule: nonzero; opacity: 1;" vector-effect="non-scaling-stroke"  transform=" translate(-47.57, -23.05)" d="M 47.5695 25.1358 C 48.7214 25.1358 49.6552 24.2006 49.6552 23.047 C 49.6552 21.8934 48.7214 20.9582 47.5695 20.9582 C 46.4177 20.9582 45.4839 21.8934 45.4839 23.047 C 45.4839 24.2006 46.4177 25.1358 47.5695 25.1358 Z" stroke-linecap="round" />
</g>
		<g transform="matrix(1 0 0 1 -115.62 -9.95)" clip-path="url(#CLIPPATH_10)"  >
<clipPath id="CLIPPATH_10" >
	<rect transform="matrix(1 0 0 1 33.14 9.95)" id="clip0_3_35" x="-61" y="-33" rx="0" ry="0" width="122" height="66" />
</clipPath>
<path style="stroke: rgb(0,0,0); stroke-width: 1; stroke-dasharray: none; stroke-linecap: butt; stroke-dashoffset: 0; stroke-linejoin: miter; stroke-miterlimit: 10; fill: rgb(0,0,0); fill-rule: nonzero; opacity: 1;" vector-effect="non-scaling-stroke"  transform=" translate(-27.86, -23.05)" d="M 27.8583 25.1358 C 29.0101 25.1358 29.9439 24.2006 29.9439 23.047 C 29.9439 21.8934 29.0101 20.9582 27.8583 20.9582 C 26.7064 20.9582 25.7727 21.8934 25.7727 23.047 C 25.7727 24.2006 26.7064 25.1358 27.8583 25.1358 Z" stroke-linecap="round" />
</g>
</g>
</g>
</svg>