<svg width="76" height="66" viewBox="0 0 76 66" fill="none" xmlns="http://www.w3.org/2000/svg">
<path id="Vector" d="M37.7174 65.9693C31.3134 66.0956 24.9095 65.7111 18.5665 64.8193C14.0988 64.2117 9.67914 63.3312 5.50965 61.4381C0.923721 59.3562 -0.42841 55.7296 0.113127 50.9685C0.916863 43.8937 3.82163 37.5347 7.052 31.3199C11.6791 22.4189 17.2846 14.2063 24.4823 7.15726C26.4611 5.21523 28.6519 3.50241 31.0133 2.05116C35.4861 -0.694975 39.9092 -0.665797 44.3803 2.07004C49.261 5.05647 53.134 9.12419 56.69 13.5163C63.5775 22.0225 69.0682 31.349 72.9395 41.5887C74.2797 45.1381 75.3387 48.787 75.2925 52.6608C75.2376 57.391 73.4862 59.981 69.1128 61.79C65.1798 63.4153 61.048 64.2529 56.8682 64.809C50.5189 65.6603 44.1335 66.122 37.7174 65.9693ZM37.6625 32.983C41.6327 32.983 45.6022 32.983 49.5712 32.983C52.3029 32.983 53.4099 33.9321 53.5796 36.6611C53.9977 43.4029 54.4107 50.1481 53.8178 56.9036C53.7253 57.966 53.7253 59.0387 53.6653 60.1045C53.6276 60.7602 53.8366 61.0193 54.5547 60.9404C58.887 60.4701 63.1559 59.7012 67.2465 58.1565C70.5283 56.9173 71.2755 55.6901 71.1778 52.1493C71.0853 48.7166 70.069 45.5002 68.8574 42.3662C65.0872 32.5831 59.7421 23.7062 53.1375 15.5913C50.0528 11.8154 46.6956 8.31922 42.5244 5.6795C39.2546 3.6096 36.0996 3.61989 32.8384 5.6795C29.6732 7.68761 26.9449 10.1797 24.4857 12.9705C16.9401 21.5127 10.9182 31.2914 6.68354 41.8787C5.42607 44.9617 4.57797 48.1966 4.16094 51.5005C3.77707 54.6586 4.58594 56.5277 7.07427 57.6639C11.47 59.6686 16.181 60.41 20.9332 60.9473C21.6512 61.0279 21.802 60.6658 21.7523 60.0221C21.1379 52.1781 21.1757 44.2964 21.8654 36.4586C22.0779 34.0557 23.1113 32.995 25.4968 32.9881C29.5532 32.9744 33.6079 32.9847 37.6625 32.983Z" fill="black"/>
</svg>
