<svg id="Layer_1" data-name="Layer 1" xmlns="http://www.w3.org/2000/svg" viewBox="0 0 711.9 384.54"><defs><style>.cls-1{fill:#fff;}.cls-2{stroke:#000;stroke-miterlimit:10;}</style></defs><path d="M457.86,479.05a704.1,704.1,0,0,1-111.75-6.7c-26.07-3.54-51.86-8.67-76.19-19.7-26.76-12.13-34.65-33.26-31.49-61,4.69-41.22,21.64-78.27,40.49-114.48,27-51.86,59.71-99.71,101.71-140.78a215.46,215.46,0,0,1,38.11-29.75c26.1-16,51.91-15.83,78,.11,28.48,17.4,51.08,41.1,71.83,66.69C608.76,223,640.8,277.34,663.39,337c7.82,20.68,14,41.94,13.73,64.51-.32,27.56-10.54,42.65-36.06,53.19-22.95,9.47-47.06,14.35-71.45,17.59C532.56,477.25,495.3,479.94,457.86,479.05Zm-.32-192.19q34.75,0,69.49,0c15.94,0,22.4,5.53,23.39,21.43,2.44,39.28,4.85,78.58,1.39,117.94-.54,6.19-.54,12.44-.89,18.65-.22,3.82,1,5.33,5.19,4.87,25.28-2.74,50.19-7.22,74.06-16.22,19.15-7.22,23.51-14.37,22.94-35-.54-20-6.47-38.74-13.54-57-22-57-53.19-108.72-91.73-156-18-22-37.59-42.37-61.93-57.75-19.08-12.06-37.49-12-56.52,0C410.92,139.48,395,154,380.65,170.26A579.31,579.31,0,0,0,276.77,338.69a221.8,221.8,0,0,0-14.72,56.06c-2.24,18.4,2.48,29.29,17,35.91,25.65,11.68,53.14,16,80.87,19.13,4.19.47,5.07-1.64,4.78-5.39a827.05,827.05,0,0,1,.66-137.29c1.24-14,7.27-20.18,21.19-20.22C410.22,286.81,433.88,286.87,457.54,286.86Z" transform="translate(-237.77 -94.69)"/><path class="cls-1" d="M374.46,254.82a1.5,1.5,0,0,0,0-3,1.5,1.5,0,0,0,0,3Z" transform="translate(-237.77 -94.69)"/><path class="cls-1" d="M388.16,222.1a1.5,1.5,0,0,0,0-3,1.5,1.5,0,0,0,0,3Z" transform="translate(-237.77 -94.69)"/><path class="cls-1" d="M371.42,230.47a1.5,1.5,0,0,0,0-3,1.5,1.5,0,0,0,0,3Z" transform="translate(-237.77 -94.69)"/><circle class="cls-2" cx="277.58" cy="134.28" r="12.17"/><circle class="cls-2" cx="162.56" cy="134.28" r="12.17"/><text x="-237.77" y="-94.69"/></svg>