<?xml version="1.0" encoding="UTF-8"?>
<svg id="Layer_1" data-name="Layer 1" xmlns="http://www.w3.org/2000/svg" viewBox="0 0 3535.47 3094.06">
  <defs>
    <style>
      .cls-1 {
        stroke: #000;
        stroke-miterlimit: 10;
        stroke-width: .1px;
      }
    </style>
  </defs>
  <path d="m1771.03,3092.71c-300.7,5.92-601.4-12.1-899.25-53.91-209.78-28.49-417.31-69.77-613.1-158.53-215.34-97.61-278.83-267.64-253.4-490.86,37.74-331.7,174.14-629.83,325.82-921.22,217.27-417.31,480.48-802.36,818.46-1132.85,92.92-91.05,195.79-171.36,306.67-239.4,210.03-128.75,417.72-127.38,627.66.89,229.18,140.02,411.04,330.73,578.01,536.65,323.41,398.81,581.23,836.08,763.01,1316.16,62.93,166.41,112.66,337.49,110.48,519.11-2.58,221.77-84.81,343.2-290.17,428.02-184.68,76.2-378.69,115.47-574.95,141.55-298.14,39.91-597.97,61.56-899.25,54.4Zm-2.58-1546.54h559.18c128.27,0,180.25,44.5,188.22,172.45,19.63,316.08,39.03,632.33,11.19,949.06-4.35,49.81-4.35,100.1-7.16,150.08-1.77,30.74,8.05,42.89,41.76,39.19,203.43-22.05,403.88-58.1,595.96-130.52,154.1-58.1,189.18-115.63,184.6-281.64-4.35-160.94-52.06-311.74-108.96-458.68-177.03-458.68-428.02-874.86-738.15-1255.32-144.85-177.03-302.48-340.95-498.35-464.71-153.54-97.05-301.68-96.56-454.81,0-148.63,94.15-276.74,210.99-392.21,341.83-354.31,400.5-637.07,858.97-835.92,1355.35-59.05,144.54-98.87,296.21-118.45,451.11-18.03,148.06,19.96,235.7,136.8,288.97,206.4,93.99,427.62,128.75,650.76,153.94,33.72,3.78,40.8-13.2,38.46-43.37-28.85-367.77-27.07-737.29,5.31-1104.77,9.98-112.66,58.5-162.39,170.51-162.71,190.47-.64,380.86-.16,571.25-.24h0Z"/>
  <circle class="cls-1" cx="2234.55" cy="1080.33" r="97.93"/>
  <circle class="cls-1" cx="1308.98" cy="1080.33" r="97.93"/>
</svg>